<svg width="103" height="34" viewBox="0 0 103 34" fill="none" xmlns="http://www.w3.org/2000/svg">
<path d="M47.362 13.14C45.7567 13.14 44.5527 12.7947 43.75 12.104C42.9567 11.404 42.56 10.3027 42.56 8.8C42.56 7.932 42.7233 7.176 43.05 6.532C43.3767 5.87867 43.8947 5.37 44.604 5.006C45.3133 4.642 46.2327 4.46 47.362 4.46C48.2487 4.46 48.986 4.50667 49.574 4.6C50.162 4.69333 50.5587 4.78667 50.764 4.88V5.3L51.044 6.84C50.8667 6.71867 50.6007 6.59267 50.246 6.462C49.9007 6.33133 49.4853 6.224 49 6.14C48.5147 6.04667 47.978 6 47.39 6C46.746 6 46.2233 6.10267 45.822 6.308C45.43 6.51333 45.1407 6.826 44.954 7.246C44.7767 7.65667 44.688 8.17467 44.688 8.8C44.688 9.42533 44.7767 9.94333 44.954 10.354C45.1407 10.7647 45.458 11.0727 45.906 11.278C46.3633 11.4833 46.9933 11.586 47.796 11.586C48.5987 11.586 49.266 11.474 49.798 11.25C50.3393 11.026 50.708 10.8113 50.904 10.606V11.026L51.044 12.44C50.8853 12.5893 50.498 12.7433 49.882 12.902C49.2753 13.0607 48.4353 13.14 47.362 13.14ZM52.3117 13C52.377 13 52.4377 12.9347 52.4937 12.804C52.559 12.6733 52.5917 12.4587 52.5917 12.16V5.44C52.5917 5.14133 52.559 4.93133 52.4937 4.81C52.4283 4.67933 52.363 4.60933 52.2977 4.6H56.8897C57.711 4.6 58.3643 4.70267 58.8497 4.908C59.3443 5.11333 59.699 5.41667 59.9137 5.818C60.1377 6.21 60.2497 6.7 60.2497 7.288C60.2497 7.708 60.1703 8.08133 60.0117 8.408C59.8623 8.73467 59.6523 9.00067 59.3817 9.206C59.111 9.41133 58.8077 9.56067 58.4717 9.654V9.696C58.845 9.84533 59.237 10.1393 59.6477 10.578C60.0583 11.0073 60.427 11.488 60.7537 12.02C60.9683 12.3653 61.1643 12.6127 61.3417 12.762C61.519 12.9113 61.6543 12.9907 61.7477 13H58.2197C58.3317 12.9907 58.4203 12.93 58.4857 12.818C58.5603 12.6967 58.537 12.5007 58.4157 12.23C58.2197 11.782 57.9817 11.3947 57.7017 11.068C57.4217 10.7413 57.095 10.494 56.7217 10.326C56.3577 10.1487 55.9377 10.06 55.4617 10.06H55.3077C55.0183 10.06 54.8503 10.0833 54.8037 10.13C54.757 10.1767 54.7337 10.2933 54.7337 10.48V12.16C54.7337 12.4587 54.7663 12.6733 54.8317 12.804C54.897 12.9347 54.9623 13 55.0277 13H52.3117ZM55.3077 8.646H56.4557C57.0437 8.646 57.4683 8.54333 57.7297 8.338C57.991 8.12333 58.1217 7.77333 58.1217 7.288C58.1217 7.07333 58.075 6.882 57.9817 6.714C57.8883 6.546 57.7297 6.41533 57.5057 6.322C57.291 6.22867 56.9877 6.182 56.5957 6.182H55.3077C55.0183 6.182 54.8503 6.196 54.8037 6.224C54.757 6.252 54.7337 6.35933 54.7337 6.546V8.268C54.7337 8.45467 54.757 8.56667 54.8037 8.604C54.8503 8.632 55.0183 8.646 55.3077 8.646ZM62.4422 13C62.5075 13 62.5729 12.9347 62.6382 12.804C62.7035 12.6733 62.7362 12.4587 62.7362 12.16V5.44C62.7362 5.14133 62.7035 4.93133 62.6382 4.81C62.5729 4.67933 62.5075 4.60933 62.4422 4.6H70.6182V5.02L70.8982 6.644C70.6649 6.54133 70.2542 6.434 69.6662 6.322C69.0782 6.20067 68.3689 6.14 67.5382 6.14H65.4662C65.1862 6.14 65.0182 6.16333 64.9622 6.21C64.9155 6.24733 64.8922 6.364 64.8922 6.56V7.596C64.8922 7.80133 64.9155 7.92267 64.9622 7.96C65.0182 7.99733 65.1815 8.016 65.4522 8.016H67.4682C68.0095 8.016 68.4435 7.988 68.7702 7.932C69.1062 7.86667 69.3255 7.80133 69.4282 7.736C69.3909 7.91333 69.3489 8.11867 69.3022 8.352C69.2555 8.58533 69.2182 8.80933 69.1902 9.024C69.1622 9.23867 69.1482 9.416 69.1482 9.556H65.4522C65.1815 9.556 65.0182 9.57467 64.9622 9.612C64.9155 9.64 64.8922 9.76133 64.8922 9.976V11.012C64.8922 11.2267 64.9155 11.3527 64.9622 11.39C65.0089 11.4273 65.1722 11.446 65.4522 11.446H69.2322C69.7735 11.446 70.2075 11.3853 70.5342 11.264C70.8702 11.1333 71.0895 11.0073 71.1922 10.886L70.9122 12.566V13H62.4422ZM72.1766 13C72.2419 13 72.3072 12.9347 72.3726 12.804C72.4379 12.6733 72.4706 12.4587 72.4706 12.16V5.44C72.4706 5.14133 72.4379 4.93133 72.3726 4.81C72.3072 4.67933 72.2419 4.60933 72.1766 4.6H76.5726C77.3939 4.6 78.0846 4.67933 78.6446 4.838C79.2046 4.99667 79.6526 5.216 79.9886 5.496C80.3339 5.776 80.5952 6.098 80.7726 6.462C80.9499 6.81667 81.0666 7.19467 81.1226 7.596C81.1879 7.99733 81.2206 8.40333 81.2206 8.814C81.2206 9.18733 81.1879 9.57467 81.1226 9.976C81.0666 10.368 80.9452 10.746 80.7586 11.11C80.5812 11.4647 80.3199 11.7867 79.9746 12.076C79.6386 12.356 79.1906 12.58 78.6306 12.748C78.0799 12.916 77.3939 13 76.5726 13H72.1766ZM75.1866 11.446H75.7606C76.5632 11.446 77.2072 11.3807 77.6926 11.25C78.1779 11.11 78.5326 10.858 78.7566 10.494C78.9806 10.13 79.0926 9.60267 79.0926 8.912V8.66C79.0926 7.932 78.9899 7.39533 78.7846 7.05C78.5792 6.69533 78.2339 6.462 77.7486 6.35C77.2632 6.238 76.6006 6.182 75.7606 6.182H75.1866C74.9159 6.182 74.7526 6.20067 74.6966 6.238C74.6499 6.266 74.6266 6.378 74.6266 6.574V11.026C74.6266 11.2313 74.6499 11.3527 74.6966 11.39C74.7526 11.4273 74.9159 11.446 75.1866 11.446ZM82.4852 13C82.5505 13 82.6112 12.9393 82.6672 12.818C82.7325 12.6873 82.7652 12.468 82.7652 12.16V5.44C82.7652 5.14133 82.7325 4.92667 82.6672 4.796C82.6112 4.66533 82.5505 4.6 82.4852 4.6H85.1872C85.1218 4.6 85.0565 4.66533 84.9912 4.796C84.9258 4.91733 84.8932 5.13667 84.8932 5.454V12.16C84.8932 12.4587 84.9258 12.6733 84.9912 12.804C85.0565 12.9347 85.1218 13 85.1872 13H82.4852ZM89.2747 13C89.3401 13 89.4054 12.9347 89.4707 12.804C89.5361 12.6733 89.5687 12.4587 89.5687 12.16V6.56C89.5687 6.35467 89.5454 6.23333 89.4987 6.196C89.4521 6.15867 89.2887 6.14 89.0087 6.14H87.9867C87.4454 6.14 87.0067 6.20067 86.6707 6.322C86.3441 6.434 86.1294 6.54133 86.0267 6.644L86.3067 5.02V4.6H94.9867V5.02L95.2667 6.644C95.1641 6.54133 94.9447 6.434 94.6087 6.322C94.2821 6.20067 93.8481 6.14 93.3067 6.14H92.2987C92.0094 6.14 91.8414 6.15867 91.7947 6.196C91.7481 6.23333 91.7247 6.35467 91.7247 6.56V12.16C91.7247 12.4587 91.7574 12.6733 91.8227 12.804C91.8881 12.9347 91.9534 13 92.0187 13H89.2747ZM41.972 30C42.0187 30 42.0887 29.9347 42.182 29.804C42.2847 29.6733 42.4013 29.454 42.532 29.146C42.5973 29.006 42.7 28.768 42.84 28.432C42.9893 28.0867 43.1573 27.69 43.344 27.242C43.54 26.7847 43.7407 26.3087 43.946 25.814C44.1607 25.3193 44.3613 24.8433 44.548 24.386C44.744 23.9287 44.912 23.5273 45.052 23.182C45.2013 22.8367 45.304 22.5893 45.36 22.44C45.4813 22.1413 45.5467 21.9267 45.556 21.796C45.5653 21.6653 45.5467 21.6 45.5 21.6H48.552C48.5147 21.6 48.5007 21.6653 48.51 21.796C48.5193 21.9173 48.5847 22.132 48.706 22.44C48.762 22.5893 48.86 22.8367 49 23.182C49.14 23.518 49.3033 23.9147 49.49 24.372C49.6767 24.82 49.8727 25.2913 50.078 25.786C50.2833 26.2807 50.4793 26.7567 50.666 27.214C50.8527 27.662 51.0207 28.0587 51.17 28.404C51.3193 28.7493 51.4267 28.9967 51.492 29.146C51.632 29.454 51.7673 29.6733 51.898 29.804C52.0287 29.9347 52.1267 30 52.192 30H49.014C49.0887 29.9907 49.1493 29.9207 49.196 29.79C49.252 29.65 49.252 29.4353 49.196 29.146C49.1867 29.0807 49.1773 29.0293 49.168 28.992C49.1587 28.9453 49.14 28.88 49.112 28.796C49.0747 28.656 49.0327 28.558 48.986 28.502C48.9393 28.4367 48.86 28.3993 48.748 28.39C48.6453 28.3807 48.4727 28.376 48.23 28.376H45.822C45.57 28.376 45.3833 28.3853 45.262 28.404C45.1407 28.4133 45.0567 28.446 45.01 28.502C44.9633 28.558 44.926 28.6513 44.898 28.782C44.8887 28.8287 44.8747 28.8893 44.856 28.964C44.8467 29.0387 44.8373 29.0993 44.828 29.146C44.7627 29.4447 44.744 29.6593 44.772 29.79C44.8093 29.9207 44.856 29.9907 44.912 30H41.972ZM46.186 26.836H47.824C48.0947 26.836 48.244 26.8127 48.272 26.766C48.3 26.7193 48.286 26.6167 48.23 26.458C48.1087 26.1593 47.9873 25.856 47.866 25.548C47.7447 25.2307 47.628 24.9227 47.516 24.624C47.4133 24.3253 47.32 24.05 47.236 23.798C47.1613 23.5367 47.096 23.3173 47.04 23.14H47.012C46.8813 23.4853 46.746 23.8493 46.606 24.232C46.466 24.6147 46.3353 24.9693 46.214 25.296C46.0927 25.6227 45.9947 25.8933 45.92 26.108C45.8453 26.3133 45.808 26.416 45.808 26.416C45.7427 26.5653 45.7193 26.6727 45.738 26.738C45.7567 26.8033 45.906 26.836 46.186 26.836ZM52.9266 30C52.9919 30 53.0572 29.9347 53.1226 29.804C53.1879 29.6733 53.2206 29.4587 53.2206 29.16V22.44C53.2206 22.1413 53.1879 21.9313 53.1226 21.81C53.0572 21.6793 52.9919 21.6093 52.9266 21.6H55.6706C55.6052 21.6 55.5399 21.6653 55.4746 21.796C55.4092 21.9267 55.3766 22.146 55.3766 22.454V28.012C55.3766 28.2173 55.3999 28.3433 55.4466 28.39C55.5026 28.4273 55.6706 28.446 55.9506 28.446H59.3246C59.8659 28.446 60.2999 28.3853 60.6266 28.264C60.9626 28.1333 61.1819 28.0073 61.2846 27.886L60.8646 29.566V30H52.9266ZM62.1277 30C62.1931 30 62.2584 29.9347 62.3237 29.804C62.3891 29.6733 62.4217 29.4587 62.4217 29.16V22.44C62.4217 22.1413 62.3891 21.9313 62.3237 21.81C62.2584 21.6793 62.1931 21.6093 62.1277 21.6H65.4317C65.3757 21.6093 65.3477 21.684 65.3477 21.824C65.3571 21.9547 65.4364 22.1693 65.5857 22.468C65.6511 22.5893 65.7444 22.7807 65.8657 23.042C65.9964 23.3033 66.1411 23.6067 66.2997 23.952C66.4677 24.2973 66.6404 24.666 66.8177 25.058C67.0044 25.45 67.1911 25.842 67.3777 26.234C67.5644 26.626 67.7371 26.9947 67.8957 27.34H67.9097C68.0777 26.9947 68.2551 26.6307 68.4417 26.248C68.6377 25.856 68.8291 25.464 69.0157 25.072C69.2024 24.68 69.3797 24.3113 69.5477 23.966C69.7157 23.6113 69.8604 23.3033 69.9817 23.042C70.1031 22.7713 70.1917 22.5707 70.2477 22.44C70.3784 22.1413 70.4484 21.9267 70.4577 21.796C70.4671 21.6653 70.4484 21.6 70.4017 21.6H73.7057C73.6404 21.6 73.5751 21.6653 73.5097 21.796C73.4444 21.9267 73.4117 22.146 73.4117 22.454V29.16C73.4117 29.4587 73.4444 29.6733 73.5097 29.804C73.5751 29.9347 73.6404 30 73.7057 30H71.0037C71.0691 30 71.1297 29.9347 71.1857 29.804C71.2511 29.6733 71.2837 29.4587 71.2837 29.16V24.624H71.2557C71.1064 24.904 70.9477 25.212 70.7797 25.548C70.6117 25.884 70.4391 26.2247 70.2617 26.57C70.0937 26.9153 69.9304 27.2513 69.7717 27.578C69.6131 27.9047 69.4684 28.2033 69.3377 28.474C69.2071 28.7447 69.0997 28.9733 69.0157 29.16C68.8851 29.4493 68.8151 29.6593 68.8057 29.79C68.8057 29.9207 68.8291 29.9907 68.8757 30H66.9157C66.9624 29.9907 66.9811 29.9207 66.9717 29.79C66.9717 29.6593 66.9064 29.4493 66.7757 29.16C66.7011 28.992 66.5984 28.7727 66.4677 28.502C66.3464 28.2313 66.2064 27.9373 66.0477 27.62C65.8984 27.2933 65.7397 26.9573 65.5717 26.612C65.4037 26.2573 65.2357 25.912 65.0677 25.576C64.9091 25.2307 64.7597 24.9133 64.6197 24.624H64.5777V29.16C64.5777 29.4587 64.6104 29.6733 64.6757 29.804C64.7411 29.9347 64.8064 30 64.8717 30H62.1277ZM74.3743 30C74.421 30 74.491 29.9347 74.5843 29.804C74.687 29.6733 74.8037 29.454 74.9343 29.146C74.9997 29.006 75.1023 28.768 75.2423 28.432C75.3917 28.0867 75.5597 27.69 75.7463 27.242C75.9423 26.7847 76.143 26.3087 76.3483 25.814C76.563 25.3193 76.7637 24.8433 76.9503 24.386C77.1463 23.9287 77.3143 23.5273 77.4543 23.182C77.6037 22.8367 77.7063 22.5893 77.7623 22.44C77.8837 22.1413 77.949 21.9267 77.9583 21.796C77.9677 21.6653 77.949 21.6 77.9023 21.6H80.9543C80.917 21.6 80.903 21.6653 80.9123 21.796C80.9217 21.9173 80.987 22.132 81.1083 22.44C81.1643 22.5893 81.2623 22.8367 81.4023 23.182C81.5423 23.518 81.7057 23.9147 81.8923 24.372C82.079 24.82 82.275 25.2913 82.4803 25.786C82.6857 26.2807 82.8817 26.7567 83.0683 27.214C83.255 27.662 83.423 28.0587 83.5723 28.404C83.7217 28.7493 83.829 28.9967 83.8943 29.146C84.0343 29.454 84.1697 29.6733 84.3003 29.804C84.431 29.9347 84.529 30 84.5943 30H81.4163C81.491 29.9907 81.5517 29.9207 81.5983 29.79C81.6543 29.65 81.6543 29.4353 81.5983 29.146C81.589 29.0807 81.5797 29.0293 81.5703 28.992C81.561 28.9453 81.5423 28.88 81.5143 28.796C81.477 28.656 81.435 28.558 81.3883 28.502C81.3417 28.4367 81.2623 28.3993 81.1503 28.39C81.0477 28.3807 80.875 28.376 80.6323 28.376H78.2243C77.9723 28.376 77.7857 28.3853 77.6643 28.404C77.543 28.4133 77.459 28.446 77.4123 28.502C77.3657 28.558 77.3283 28.6513 77.3003 28.782C77.291 28.8287 77.277 28.8893 77.2583 28.964C77.249 29.0387 77.2397 29.0993 77.2303 29.146C77.165 29.4447 77.1463 29.6593 77.1743 29.79C77.2117 29.9207 77.2583 29.9907 77.3143 30H74.3743ZM78.5883 26.836H80.2263C80.497 26.836 80.6463 26.8127 80.6743 26.766C80.7023 26.7193 80.6883 26.6167 80.6323 26.458C80.511 26.1593 80.3897 25.856 80.2683 25.548C80.147 25.2307 80.0303 24.9227 79.9183 24.624C79.8157 24.3253 79.7223 24.05 79.6383 23.798C79.5637 23.5367 79.4983 23.3173 79.4423 23.14H79.4143C79.2837 23.4853 79.1483 23.8493 79.0083 24.232C78.8683 24.6147 78.7377 24.9693 78.6163 25.296C78.495 25.6227 78.397 25.8933 78.3223 26.108C78.2477 26.3133 78.2103 26.416 78.2103 26.416C78.145 26.5653 78.1217 26.6727 78.1403 26.738C78.159 26.8033 78.3083 26.836 78.5883 26.836ZM86.3489 30C86.4143 30 86.4796 29.9347 86.5449 29.804C86.6103 29.6733 86.6429 29.4587 86.6429 29.16V23.56C86.6429 23.3547 86.6196 23.2333 86.5729 23.196C86.5263 23.1587 86.3629 23.14 86.0829 23.14H85.0609C84.5196 23.14 84.0809 23.2007 83.7449 23.322C83.4183 23.434 83.2036 23.5413 83.1009 23.644L83.3809 22.02V21.6H92.0609V22.02L92.3409 23.644C92.2383 23.5413 92.0189 23.434 91.6829 23.322C91.3563 23.2007 90.9223 23.14 90.3809 23.14H89.3729C89.0836 23.14 88.9156 23.1587 88.8689 23.196C88.8223 23.2333 88.7989 23.3547 88.7989 23.56V29.16C88.7989 29.4587 88.8316 29.6733 88.8969 29.804C88.9623 29.9347 89.0276 30 89.0929 30H86.3489ZM96.2566 30C96.3312 30 96.4106 29.9393 96.4946 29.818C96.5786 29.6873 96.6206 29.468 96.6206 29.16L96.6066 26.276C96.3452 25.9493 96.0606 25.5993 95.7526 25.226C95.4446 24.8527 95.1412 24.484 94.8426 24.12C94.5439 23.756 94.2732 23.4293 94.0306 23.14C93.7972 22.8413 93.6152 22.6173 93.4846 22.468C93.2232 22.1507 93.0039 21.9267 92.8266 21.796C92.6586 21.6653 92.5419 21.6 92.4766 21.6H95.7806C95.7152 21.6093 95.6919 21.6793 95.7106 21.81C95.7292 21.9407 95.8459 22.16 96.0606 22.468C96.1632 22.608 96.2799 22.7807 96.4106 22.986C96.5506 23.182 96.6952 23.3967 96.8446 23.63C96.9939 23.8633 97.1386 24.092 97.2786 24.316C97.4279 24.54 97.5632 24.7453 97.6846 24.932H97.6986C97.8386 24.7267 97.9786 24.5213 98.1186 24.316C98.2586 24.1013 98.3986 23.8913 98.5386 23.686C98.6786 23.4807 98.8186 23.2753 98.9586 23.07C99.0986 22.8553 99.2386 22.6453 99.3786 22.44C99.5932 22.1227 99.7099 21.9033 99.7286 21.782C99.7472 21.6607 99.7239 21.6 99.6586 21.6H102.879C102.823 21.6093 102.715 21.6747 102.557 21.796C102.398 21.9173 102.193 22.1273 101.941 22.426C101.801 22.5847 101.605 22.8133 101.353 23.112C101.11 23.4013 100.839 23.7327 100.541 24.106C100.242 24.47 99.9339 24.8433 99.6166 25.226C99.3086 25.5993 99.0239 25.9493 98.7626 26.276V29.16C98.7626 29.468 98.7906 29.6873 98.8466 29.818C98.9119 29.9393 98.9772 30 99.0426 30H96.2566Z" fill="black"/>
<g clip-path="url(#clip0_6_25)">
<path d="M24.9467 1.29327C24.16 1.35727 23.424 1.5626 22.72 1.91193C21.608 2.46393 20.6507 3.60527 20.4 4.67993C20.3387 4.94127 20.3173 5.56793 20.36 5.85593C20.512 6.8986 21.1893 7.83193 22.1333 8.30127C22.3547 8.4106 22.816 8.56527 23.0373 8.6026C23.2693 8.6426 23.8747 8.6186 24.0427 8.56527C24.376 8.45594 24.672 8.22127 24.8187 7.94394C25.128 7.36527 24.9573 6.64527 24.4213 6.27727C24.0987 6.05327 23.6507 5.9946 23.2747 6.12793L23.08 6.1946L23 6.10393C22.6373 5.68793 22.656 5.01327 23.0427 4.59993C23.272 4.3546 23.7067 4.12793 24.1467 4.02127C24.4613 3.9466 24.992 3.95727 25.3253 4.04793C25.8267 4.18127 26.2267 4.43193 26.7067 4.91727C28.088 6.30927 28.2613 8.4906 27.1147 10.0879C26.8987 10.3893 26.3813 10.8959 26.0453 11.1333C25.368 11.6133 24.6587 11.9119 23.824 12.0693C23.36 12.1573 22.5013 12.1573 22.0267 12.0719C20.9493 11.8773 20.008 11.4026 19.2427 10.6666C18.9253 10.3626 18.776 10.1786 18.3093 9.51994C17.2853 8.07194 16.952 7.6906 15.8933 6.7626C15.8507 6.7226 15.6933 6.59993 15.5467 6.4906C13.9493 5.28793 12.232 4.58927 10.1867 4.3146C9.69067 4.24793 8.09867 4.24793 7.6 4.3146C6.94133 4.4026 5.83733 4.63193 5.864 4.67727C5.86933 4.68527 5.98133 4.69593 6.112 4.70127C6.97067 4.72793 8.08267 4.9386 8.97333 5.24527C11.0213 5.95193 12.7333 7.23727 14.0107 9.0266C14.248 9.35727 14.4453 9.6826 14.8533 10.4133C15.5413 11.6399 16.512 13.1759 16.9733 13.7653C17.264 14.1359 18 14.8693 18.3653 15.1546C19.7013 16.1919 21.0933 16.7573 22.92 17.0053C23.264 17.0506 24.5013 17.0506 24.8667 17.0026C25.808 16.8826 26.5547 16.6613 27.5573 16.2079C28.4827 15.7919 29.2373 15.3573 30.2667 14.6533C31.2853 13.9546 32.352 13.5679 33.456 13.4959C34.4827 13.4293 35.408 14.1333 35.6133 15.1386C35.6773 15.4346 35.68 15.6453 35.6293 15.9146C35.5813 16.1626 35.512 16.2986 35.368 16.4373C35.2213 16.5786 35.0507 16.6559 34.848 16.6746C34.5867 16.6959 34.5627 16.6799 34.496 16.4773C34.3573 16.0586 34.0293 15.7893 33.5867 15.7359C32.9867 15.6639 32.416 16.1733 32.4133 16.7813C32.4133 17.0693 32.5627 17.5386 32.736 17.7919C33.024 18.2079 33.5573 18.5466 34.1867 18.7066C34.3893 18.7599 34.4933 18.7706 34.84 18.7679C35.2027 18.7679 35.2853 18.7573 35.5173 18.6959C36.368 18.4666 37.0053 17.9306 37.3867 17.1253C37.8507 16.1466 37.9227 15.0239 37.584 13.9999C37.36 13.3226 36.8773 12.5866 36.264 11.9813C35.8053 11.5306 35.4107 11.2479 34.88 10.9759C33.7387 10.3999 32.5307 10.2533 30.9867 10.5093C30.4587 10.5973 29.696 10.7893 29.4213 10.9066C29.344 10.9386 29.3653 10.8906 29.5493 10.5973C29.8773 10.0799 30.3547 9.53594 30.8533 9.10927C31.2267 8.78927 31.44 8.63994 31.8587 8.40527C32.624 7.9706 33.4 7.71194 34.32 7.58127C34.6827 7.5306 35.6907 7.53593 36.056 7.5946C36.448 7.65593 37.0293 7.79994 37.36 7.91727C37.5067 7.9706 37.6293 8.01327 37.6293 8.01327C37.6373 8.01327 37.5813 7.73593 37.5307 7.5466C37.2693 6.5226 36.648 5.6266 35.7547 4.98127C35.4853 4.7866 34.872 4.47727 34.56 4.37593C33.4267 4.0106 32.1787 4.09327 31.1547 4.60527C31.04 4.66127 30.936 4.7066 30.9227 4.7066C30.9093 4.7066 30.8347 4.58927 30.7573 4.44527C30.2853 3.57593 29.568 2.79727 28.7307 2.25327C28.1973 1.9066 27.416 1.57593 26.776 1.4266C26.256 1.3066 25.4827 1.2506 24.9467 1.29327Z" fill="#CA9B64"/>
<path d="M9.74661 14.1119C7.92261 14.2933 6.38395 15.0079 5.13061 16.2533C4.35195 17.0266 3.79461 17.8773 3.41328 18.8799C3.35728 19.0266 3.30395 19.1573 3.29328 19.1679C3.28261 19.1786 3.22128 19.1493 3.15728 19.1013C2.72528 18.7733 2.16528 18.5306 1.63995 18.4373C1.41595 18.3999 0.74928 18.3866 0.714613 18.4213C0.703946 18.4346 0.69328 18.7706 0.695946 19.1679C0.698613 19.9519 0.746613 20.4506 0.87728 21.0933C1.27728 23.0346 2.18128 24.7439 3.54661 26.1439L3.93328 26.5386L3.65595 26.5706C2.23728 26.7306 0.99728 27.5919 0.36528 28.8533C0.23728 29.1146 0.0506131 29.6053 0.0746131 29.6293C0.0799464 29.6373 0.23728 29.6106 0.42128 29.5733C1.01061 29.4533 1.43195 29.4186 2.03995 29.4346C2.83195 29.4559 3.32795 29.5439 4.13328 29.7999C4.74661 29.9946 5.29595 30.1119 5.97328 30.1893C6.40795 30.2399 7.41861 30.2453 7.86661 30.2026C8.78928 30.1119 9.89328 29.8266 10.7039 29.4666C10.8559 29.3999 10.9839 29.3493 10.9893 29.3546C10.9973 29.3599 10.9306 29.4799 10.8426 29.6186C10.3386 30.4213 9.94928 31.4906 9.86395 32.3039L9.84528 32.4746L10.4293 32.4586C13.9919 32.3626 17.4213 30.8746 19.9626 28.3253C20.1706 28.1173 20.5519 27.7013 20.8079 27.3999C21.6773 26.3839 22.3466 25.7759 23.2933 25.1413C25.2293 23.8479 27.6079 23.1839 29.8986 23.2959C30.4559 23.3226 31.0666 23.3866 31.3066 23.4426C31.4106 23.4693 30.9253 23.2106 30.5733 23.0559C29.7066 22.6719 28.8799 22.4399 27.8906 22.3039C27.5466 22.2559 27.3359 22.2453 26.7599 22.2426C26.3653 22.2426 25.9199 22.2559 25.7519 22.2746C23.6799 22.5039 21.8373 23.3226 20.3199 24.6959C19.5839 25.3599 18.5493 26.0719 17.8133 26.4133C17.7119 26.4613 17.5279 26.5466 17.4079 26.6026C16.6933 26.9359 15.6586 27.2533 14.7999 27.3999C13.4586 27.6266 12.1359 27.6106 10.8106 27.3466C9.77061 27.1386 8.98661 26.8426 8.28528 26.3866C7.47995 25.8666 6.75461 25.0853 6.28528 24.2399C6.08795 23.8799 5.99728 23.6746 5.85328 23.2479C5.62395 22.5839 5.54661 22.0773 5.54661 21.2799C5.54928 20.5893 5.59461 20.2453 5.76261 19.6586C6.01861 18.7706 6.42128 18.0559 6.94928 17.5466C7.47995 17.0373 8.08528 16.7199 8.83995 16.5573C9.16261 16.4853 9.95728 16.4853 10.2799 16.5573C11.4133 16.8026 12.3253 17.4719 12.8613 18.4506C13.0213 18.7386 13.0719 18.8853 13.1093 19.1493C13.1466 19.4266 13.0906 19.7333 12.9466 20.0346C12.7439 20.4559 12.3253 20.7839 11.8639 20.8799C11.6559 20.9226 11.6533 20.9226 11.6319 20.7333C11.6133 20.5706 11.4986 20.2826 11.3813 20.0986C11.0533 19.5813 10.4773 19.2666 9.86128 19.2666C9.57061 19.2666 9.32261 19.3279 9.05595 19.4586C8.87195 19.5493 8.78128 19.6159 8.59995 19.7999C8.23195 20.1706 8.06661 20.5599 8.06661 21.0666C8.06661 21.9626 8.49061 22.9439 9.17328 23.6266C9.85861 24.3119 10.7146 24.6853 11.6933 24.7253C12.4346 24.7546 13.0959 24.5999 13.8933 24.2133C14.6053 23.8666 15.1973 23.4079 15.6666 22.8346C16.2453 22.1306 16.5999 21.3546 16.7626 20.4479C16.8373 20.0319 16.8453 19.2239 16.7759 18.8266C16.5386 17.4319 15.8053 16.2426 14.6906 15.4533C13.6826 14.7413 12.4479 14.2719 11.1999 14.1333C10.8906 14.0986 10.0079 14.0853 9.74661 14.1119Z" fill="#CA9B64"/>
</g>
<defs>
<clipPath id="clip0_6_25">
<rect width="38" height="32" fill="white" transform="translate(0 1)"/>
</clipPath>
</defs>
</svg>
